<?xml version="1.0" encoding="UTF-8"?>
<svg id="Capa_1" data-name="Capa 1" xmlns="http://www.w3.org/2000/svg" viewBox="0 0 500.76 135.47">
  <defs>
    <style>
      .cls-1 {
        fill: #414044;
      }

      .cls-2 {
        fill: #c1bebb;
      }

      .cls-3 {
        fill: #43a33a;
      }

      .cls-4 {
        fill: #c3bfbc;
      }

      .cls-5 {
        fill: #e1e2cf;
      }

      .cls-6 {
        fill: #c0bdba;
      }

      .cls-7 {
        fill: #5bba43;
      }
    </style>
  </defs>
  <path class="cls-1" d="m77.96,108.79c.01-.46.3-.59.71-.66,1.08-.18,2.14-.41,3.21-.67,1.43-.35,2.21-1.21,2.42-2.66.11-.79.09-1.59.15-2.38.2-1.21-.05-2.43.13-3.64.06-5.61.04-11.21.02-16.82,0-1.42-.46-2.42-1.78-3.06-1.23-.6-2.47-1.16-3.78-1.57-.44-.14-.91-.24-1.29-.52-.61-.43-.65-.98-.13-1.52.45-.46,1.04-.59,1.64-.67,3.58-.51,7.06-1.41,10.51-2.48.64-.2,1.26-.45,1.87-.7.32-.13.49-.03.62.27.2.48.18.98.12,1.48-.1.83-.18,1.66-.16,2.5.02.56-.34,1.28.37,1.63.64.31,1.03-.32,1.47-.64,1.76-1.28,3.58-2.45,5.54-3.4,1.29-.63,2.62-1.17,4.01-1.53,4.62-1.18,8.42.12,11.46,3.75.41.49.76,1.02,1.12,1.54.61.88.73.91,1.56.28,2.6-1.95,5.35-3.63,8.36-4.88,2.63-1.1,5.33-1.45,8.13-.78,3.62.86,6.16,3.05,7.76,6.37,1.12,2.32,1.6,4.79,1.79,7.34.15,3.05.04,6.11.06,9.16,0,1.36.09,2.72-.06,4.08-.01,1.94-.01,3.87-.04,5.81-.01,1.29.59,2.13,1.77,2.62,1.21.5,2.5.72,3.77.96.23.04.46.09.69.12.32.04.45.21.45.54,0,.81-.12,1.59-.34,2.37-.09.3-.27.42-.59.4-.57-.03-1.14-.03-1.7-.05-.75-.2-1.52.05-2.27-.14-4.63-.09-9.26-.14-13.89.14-.2.01-.4,0-.6.03-.48.06-.77-.06-.75-.61,0-.26-.06-.53-.07-.79-.1-1.66-.05-1.7,1.57-2.09.71-.17,1.42-.35,2.12-.58,1.08-.36,1.67-1.12,1.87-2.25.22-1.29.1-2.59.2-3.88.18-.99.08-1.98.07-2.98-.03-3.22.11-6.43-.07-9.65-.08-1.46-.09-2.93-.41-4.37-.81-3.67-3.57-6.22-7.2-6.66-.95-.12-1.9-.14-2.85,0-2.66.38-5.01,1.5-7.18,3.05-.45.32-.6.75-.51,1.31.13.82.21,1.65.31,2.47.15.35.07.72.07,1.09,0,6.29,0,12.59,0,18.88,0,.36-.08.73.08,1.08.19,1.22,1.12,1.67,2.14,1.95,1.05.29,2.13.49,3.21.7.5.1.75.3.72.85-.03.63-.04,1.25-.2,1.87-.12.45-.3.68-.82.64-.79-.06-1.59-.04-2.39-.06-2.63-.16-5.26-.05-7.9-.06-1.6,0-3.2-.1-4.79.06-1.07.02-2.14.04-3.2.05-.91,0-.91,0-1.03-.92-.03-.2-.05-.4-.06-.6-.05-1.52.07-1.66,1.57-1.93.82-.15,1.63-.33,2.45-.5,1.35-.27,2.08-1.13,2.25-2.46.06-.46.06-.93.08-1.4.2-.8-.05-1.63.14-2.44.02-.66.04-1.32.06-1.98.18-1.85.06-3.71.07-5.56,0-1.69.11-3.38-.06-5.07-.09-1.73-.09-3.47-.63-5.14-.16-.51-.33-1.02-.54-1.5-1.36-3.09-3.75-4.68-7.11-4.77-3.28-.09-6.09,1.2-8.76,2.96-.76.5-1.2,1.13-1.27,2.03-.1,6.89-.11,13.78,0,20.66.01.57.02,1.13.04,1.7.06,1.71.72,2.58,2.38,3.01.9.23,1.83.35,2.75.51.91.16.93.16.93,1.07,0,.57-.03,1.13-.12,1.69-.08.46-.29.68-.8.65-.87-.06-1.74-.03-2.6-.09-3.9-.25-7.81-.18-11.72-.11-.82.19-1.65-.06-2.47.14-.65.02-1.3.01-1.94.05-.46.03-.66-.17-.67-.6-.11-.68-.09-1.37-.01-2.05Z"/>
  <path class="cls-1" d="m221.13,98.41c.07,2.13.03,4.26.18,6.38.13,1.79.63,2.4,2.39,2.79,1.01.22,2.02.42,3.06.43.53,0,.71.25.76.71.08.84-.03,1.66-.23,2.47-.13.53-.4.76-.99.72-1.23-.08-2.46-.08-3.69-.12-1.56-.21-3.13.06-4.69-.14-.59,0-1.18,0-1.77,0-1.49.2-3-.07-4.49.14-1.4.03-2.8.07-4.2.1-.72.01-.82-.06-.92-.74-.12-.79-.1-1.59,0-2.39.06-.49.31-.72.84-.79.99-.13,1.96-.36,2.94-.56,1.17-.24,1.89-.94,2.07-2.14.24-1.62.2-3.25.29-4.88.05-.8.04-1.6.06-2.4.06-.12.08-.25.08-.39,0-5.15,0-10.31,0-15.46,0-.14-.02-.26-.08-.39,0-1.05-.53-1.73-1.44-2.22-1.21-.65-2.46-1.19-3.77-1.61-.44-.14-.9-.28-1.3-.51-1.03-.58-1.05-1.64-.08-2.33.39-.28.84-.42,1.3-.49,4.33-.66,8.58-1.66,12.66-3.27.44-.17.61-.01.79.31.24.43.28.89.25,1.36-.06,1.03-.14,2.06-.2,3.1-.01.23-.03.47-.01.7.01.25-.12.58.22.7.25.09.42-.15.6-.3,1.73-1.43,3.55-2.72,5.52-3.79,1.74-.94,3.54-1.75,5.5-2.08,4.52-.74,8.29.63,11.27,4.13,1.67,1.97,2.46,4.32,2.93,6.81.24,1.28.38,2.57.45,3.87.15.52.07,1.06.07,1.59,0,4.33,0,8.66,0,12.99,0,.36-.06.73.07,1.09.02.97.03,1.93.05,2.9.02,1.15.44,1.88,1.67,2.3,1.3.44,2.63.72,3.98.95.74.13.76.12.8.86.05.8,0,1.59-.22,2.38-.14.49-.39.72-.92.68-.9-.07-1.8-.08-2.7-.11-1.08-.21-2.19.05-3.27-.14-4.14-.12-8.27.11-12.4.25-1.08.04-1.08.03-1.26-1.04-.12-.7-.13-1.39,0-2.08.09-.49.29-.73.84-.78.99-.08,1.99-.23,2.94-.53,1.45-.45,1.79-.87,1.92-2.41.1-.19.07-.39.07-.59,0-5.18,0-10.36,0-15.54,0-.2.02-.4-.07-.59,0-1.5-.02-3.01-.42-4.47-.89-3.25-3.04-5.21-6.3-5.86-3.42-.68-6.54.22-9.42,2.1-1.05.69-1.65,1.62-1.76,2.87-.14.35-.07.72-.07,1.09,0,4.42,0,8.84,0,13.26,0,.36-.07.73.08,1.08Z"/>
  <g>
    <path class="cls-3" d="m27.28,115.82c-1.21-1-2.43-1.97-3.61-3-7.57-6.6-13.64-14.35-17.94-23.45-2.61-5.52-4.33-11.32-5.16-17.38-.48-3.48-.68-6.98-.5-10.48.5-10.28,2.56-20.22,6.77-29.66.05-.12.13-.23.2-.34,1.37-1.03,1.48-.99,2.05.69,3.07,9.18,6.08,18.38,9.2,27.54,3.69,10.8,7.24,21.65,10.89,32.46.09.28.17.57.39.98.15-1.35.78-2.49.41-3.76-.05-.16-.02-.33,0-.5,1.02-6.97.7-13.98.57-20.97-.19-10.38.04-20.75-.2-31.12-.11-4.84.02-9.67-.17-14.51-.18-4.53-.18-9.07-.41-13.59-.12-2.19-.18-4.4-.48-6.58-.05-.39-.21-.89.39-1.07,1.75,3.66,3.64,7.2,6.62,10.09,3.62,3.52,6.86,7.37,9.71,11.55,4.72,6.92,8.14,14.44,10.54,22.44.86,2.87,1.7,5.75,2.13,8.73.35,2.41.6,4.82.73,7.25.12,2.28.1,4.55,0,6.83-.3,5.55-1.26,10.97-2.96,16.27-2.02,6.27-4.98,12.06-8.86,17.38-3.52,4.83-7.58,9.13-12.38,12.71-.16.12-.33.22-.5.33-.49.1-.82-.2-1.14-.49-.78-.7-1.34-1.56-1.72-2.54-1.47-3.75-1.96-7.65-1.81-11.65,0-.09.04-.12-.06-.11.14,2.82-.27,5.59-.65,8.36-.31,2.24-.63,4.48-1.3,6.66-.12.39-.14.89-.72.93Z"/>
    <path class="cls-7" d="m29.66,1.08c-.26.24-.2.56-.16.85.25,1.71.27,3.44.42,5.15.15,1.8,0,3.6.19,5.38.28,2.5,0,5,.19,7.48.37,4.9,0,9.8.2,14.69.39,9.4-.06,18.81.22,28.2.19,6.2.13,12.4.12,18.59,0,1.82-.13,3.65-.17,5.48-.02.69-.48,1.32-.41,2.04.01.13-.1.28-.05.39.49,1.11-.06,2.13-.26,3.18-.07.36-.05.73-.08,1.09,0,.14-.05.28-.21.29-.14.01-.25-.08-.3-.21-.09-.21-.17-.44-.24-.66-3.28-9.85-6.52-19.72-9.87-29.55-3.61-10.59-7.1-21.21-10.65-31.81-.07-.22-.17-.43-.27-.68-.49.05-.71.77-1.3.52.7-1.84,1.63-3.57,2.57-5.29,3.24-5.95,7.24-11.34,12.05-16.12,1.23-1.22,2.51-2.39,3.86-3.48,2.05-1.66,3.47-3.67,3.58-6.42,0-.05.06-.09.12-.19.27.33.43.67.46,1.08Z"/>
    <path class="cls-5" d="m27.28,115.82c.51-.62.6-1.41.77-2.14.72-3.15,1.14-6.35,1.46-9.56.15-1.49.3-2.98.51-4.47.09,1.16.16,2.32.27,3.48.28,2.89.64,5.76,1.81,8.46.55,1.27,1.29,2.41,2.58,3.08-1.08,1.44-1.65,3.09-1.93,4.85-.12.72-.17,1.46-.21,2.17-.06.95-.31,1.8-.64,2.68-.65,1.75-1.2,3.53-1.79,5.29-.1.3-.12.78-.54.72-.46-.06-.26-.54-.27-.84-.13-3.88-.41-7.74-1.41-11.52-.19-.74-.59-1.42-.61-2.2Z"/>
  </g>
  <path class="cls-6" d="m419.49,77.67c-.17-1.41-.24-2.85-.51-4.25-.75-3.98-2.26-7.66-4.64-10.96-2.23-3.1-4.98-5.64-8.33-7.51-4.82-2.69-10.07-3.82-15.53-3.98-4.2-.12-8.41-.06-12.62.15-2.4.12-4.8.04-7.2.15-2.53.11-5.07-.18-7.6-.15-.43,0-.87,0-1.3-.07-.93-.16-1.87-.06-2.8-.11-.34-.02-.59.13-.75.41-.54.92-1.1,1.83-1.45,2.85-.11.32-.04.52.33.54.5.03.98.16,1.48.22,1.61.21,3.23.44,4.78.97,1.78.6,2.69,1.42,2.9,3.86.17,1.99.15,4,.18,5.99.08,5.17.07,10.34-.11,15.51-.03.99.11,1.99.13,2.99.09,4.27-.08,8.54-.15,12.8-.03,2.03,0,4.06-.22,6.09-.17,1.66-.84,2.92-2.52,3.5-.86.3-1.73.49-2.63.55-.64.04-1.3.1-1.67.72-.47.78-.8,1.61-.82,2.54-.01.69.03.73.73.74,2.84.03,5.67.05,8.51.15,3.1.12,6.21.03,9.32.03,3.84-.07,7.68.21,11.51-.15,2.52-.24,5.02-.62,7.47-1.23,5.24-1.31,9.91-3.75,13.96-7.3,2.97-2.61,5.28-5.71,6.89-9.35,1.42-3.2,2.26-6.55,2.51-10.01.14-1.88.34-3.76.11-5.68Zm-10.33,7.04c-.23,3.94-1.11,7.77-2.98,11.3-2.02,3.82-4.91,6.8-8.73,8.83-1.84.97-3.83,1.51-5.89,1.8-1.97.28-3.94.25-5.9.15-2.26-.12-4.48-.54-6.56-1.55-1.8-.88-2.65-2.38-2.96-4.24-.18-1.05-.22-2.11-.22-3.18.02-6.27,0-12.55,0-18.82h0c0-6.37,0-12.75,0-19.12,0-.87.05-1.73.17-2.59.11-.77.51-1.3,1.25-1.52.73-.23,1.48-.4,2.25-.4,1.67,0,3.35-.09,5.01.02,4.21.27,8.34.97,12.13,2.98,1.69.89,3.22,2,4.65,3.28,4.16,3.71,6.4,8.42,7.41,13.81.58,3.08.53,6.18.35,9.27Z"/>
  <path class="cls-6" d="m477.48,89.12c-.69-3.93-3.04-6.81-6.41-8.89-1.94-1.2-4.02-2.09-6.23-2.67-.25-.06-.52-.11-.68-.42.27-.33.67-.42,1.01-.59,2.26-1.15,4.24-2.65,5.73-4.73,2.03-2.83,2.61-5.97,2.08-9.39-.65-4.14-2.91-7.05-6.58-8.98-2.95-1.55-6.12-2.29-9.42-2.31-5.67-.03-11.35-.16-17.02.16-2.34.13-4.66-.17-7-.16-1.5,0-3,.02-4.49-.19-.32-.05-.71-.1-.92.25-.55.91-1.09,1.84-1.31,2.9-.08.38.07.61.52.66.86.09,1.71.25,2.56.38,1.18.18,2.38.26,3.52.68,1.04.39,1.72,1.1,2,2.19.18.68.22,1.38.22,2.08-.01,12.91,0,25.82-.06,38.74,0,1.58-.12,3.18-.31,4.77-.2,1.69-1,2.7-2.66,3.04-.23.05-.45.11-.67.18-1.12.35-2.3.35-3.44.55-.41.07-.67.27-.85.6-.38.67-.66,1.39-.82,2.14-.2.93-.04,1.09.94,1.11,3.27.06,6.54-.08,9.81.15,2.69.19,5.4.05,8.1.19,2.59.13,5.2.09,7.8-.09,3.04-.2,6.03-.59,8.94-1.45,4.35-1.28,8.27-3.33,11.46-6.64,3.89-4.03,5.12-8.88,4.16-14.27Zm-32.97-31.41c.03-1.57.87-2.23,2.13-2.17,1.5.06,3.01-.06,4.51.03,2.78.18,5.48.73,7.88,2.26,2.45,1.57,3.78,3.87,4.29,6.69.34,1.92.32,3.85-.21,5.73-.65,2.29-1.86,4.18-4.06,5.32-1.21.62-2.53.88-3.85.98-1.53.11-3.06.35-4.59.2-1.76-.17-3.53-.14-5.3-.18-.77-.02-.98-.26-1-1.05-.02-.67,0-1.33,0-2,.29-5.26.11-10.53.2-15.8Zm21.65,43.09c-1.39,2.75-3.66,4.47-6.53,5.39-2.79.89-5.66.76-8.52.49-.66-.06-1.33-.13-1.98-.26-1.47-.31-2.67-.98-3.47-2.31-.71-1.2-1.17-2.46-1.17-3.87,0-3.83-.33-7.66-.18-10.85,0-2.75,0-4.86,0-6.96,0-1.21.19-1.43,1.36-1.44,2.14-.01,4.28-.09,6.41.03,3.18.18,6.29.74,9.14,2.25,3.39,1.8,5.54,4.55,6.12,8.39.48,3.16.28,6.24-1.19,9.15Z"/>
  <path class="cls-1" d="m292.66,107.02c-3.23-.53-6.49-.77-9.75-1.01-1.63-.12-3.26-.24-4.89-.4-.93-.09-1.84-.35-2.6-.94-1.34-1.04-1.36-2.8-.03-3.85.67-.53,1.44-.77,2.31-.82,4.13-.2,7.91-1.4,11.3-3.81,3.59-2.56,5.63-5.97,5.94-10.38.12-1.15.12-2.3,0-3.45-.08-.93-.23-1.84-.47-2.74-.14-.52,0-.68.52-.62.63.08,1.24.25,1.87.3,1.7.14,3.32-.19,4.39-1.62,1.22-1.64,1.36-3.52.81-5.62-1.4,1.25-2.91,2.04-4.7,2.14-1.09.11-2.19.12-3.28,0-1.59-.07-3.08-.55-4.55-1.11-2.32-.88-4.69-1.56-7.17-1.71-4.92-.31-9.37,1.22-13.47,3.75-3.08,1.9-5.05,4.74-5.78,8.32-.62,3.04-.37,6.04.74,8.95.77,2.01,2.03,3.66,3.74,4.97,1.12.86,2.37,1.48,3.69,1.98.34.13.73.19.81.64.09.5-.29.71-.61.94-.63.43-1.27.86-1.92,1.27-1.22.75-2.46,1.47-3.67,2.24-.89.56-1.02.94-.75,1.94.3,1.11.87,2.09,1.66,2.93,1.05,1.12,2.33,1.87,3.73,2.47.7.3.72.57.1,1.03-.78.57-1.59,1.11-2.37,1.68-1.77,1.31-3.54,2.62-5.08,4.21-1.78,1.85-2.39,4.03-1.79,6.54.25,1.05.64,2.04,1.16,2.97,1.7,3.03,4.37,4.87,7.56,6.07,1.99.75,4.08.97,6.17,1.21,1.14,0,2.28,0,3.42,0,.12-.01.24-.03.36-.04.39-.22.82-.18,1.25-.15h0,0c2.23-.28,4.39-.8,6.48-1.64,4.09-1.65,7.69-4,10.45-7.49,2.1-2.66,3.36-5.66,3.39-9.1.03-2.96-.98-5.48-3.18-7.49-1.64-1.49-3.63-2.18-5.78-2.53Zm-20.66-16.15c-1.51-3.33-1.86-6.81-.92-10.34.71-2.65,2.33-4.53,5.07-5.29.22-.06.46-.07.69-.11.89-.09,1.78-.11,2.67.01,3.52.47,5.74,2.52,6.99,5.75.5,1.31.77,2.67.84,4.08.1,1.01.11,2.02-.01,3.03-.14,1.54-.54,3.01-1.19,4.41-1.54,3.31-4.82,4.02-7.21,3.69-3.29-.45-5.58-2.25-6.93-5.23Zm22.54,31.57c-.58,3.46-2.75,5.61-5.85,6.94-1.51.65-3.11,1.01-4.76,1.09h0c-1.36.29-2.73.29-4.09,0-2.96-.18-5.71-1.01-8.06-2.88-1.67-1.33-2.88-2.96-3.15-5.15-.11-.75-.11-1.5,0-2.24.12-.94.49-1.8,1.06-2.54,1.54-2.01,3.38-3.64,5.88-4.35.22-.06.46-.09.68-.13h0c.09-.05.17-.13.26-.13,1.47-.04,2.94-.19,4.4.13.45.02.9.04,1.35.06,0,0,0,0,0,0,0,0,0,0,0,0,.43-.06.87-.11,1.26.14,1.9.16,3.77.45,5.6,1.01.77.24,1.5.55,2.2.95,1.81,1.05,2.94,2.57,3.23,4.67.1.81.12,1.62-.01,2.43Z"/>
  <g>
    <path class="cls-1" d="m196.76,84.83c-2.12-7.92-8.74-13.13-16.94-13.48-4.95-.21-9.55,1-13.79,3.47-4.68,2.73-7.7,6.76-8.79,12.1-.96,4.69-.53,9.31,1.16,13.78,1.68,4.43,4.6,7.78,8.95,9.78,2.36,1.09,4.86,1.62,7.46,1.77,1.09,0,2.18,0,3.27,0h0,0c3.09-.32,6-1.26,8.77-2.63,4.18-2.07,7.19-5.3,8.97-9.59,2.04-4.94,2.33-10.06.94-15.21Zm-8.71,16.21c-.51,2.04-1.49,3.85-3.2,5.19-1.29,1.02-2.74,1.63-4.38,1.81-.89.13-1.78.11-2.67.01-3.89-.43-6.74-2.5-8.88-5.65-1.89-2.78-2.85-5.91-3.32-9.21-.09-.66-.15-1.32-.22-1.98-.12-1.47-.12-2.95,0-4.42.16-1.87.48-3.71,1.22-5.44,1.25-2.94,3.33-5.03,6.5-5.7,3.26-.69,6.3.06,9.02,1.99,2.54,1.8,4.21,4.29,5.23,7.17,1.88,5.33,2.07,10.78.69,16.25Z"/>
    <path class="cls-1" d="m174.81,112.25c1.09.27,2.18.29,3.27,0-1.09.11-2.18.11-3.27,0Z"/>
  </g>
  <path class="cls-1" d="m349.49,88.56c-.02-.97-.22-1.92-.43-2.86-1.82-8.25-8.64-13.95-17.07-14.35-4.66-.22-9.03.82-13.1,3.02-6.02,3.26-9.4,8.32-9.96,15.19-.1,1.35-.1,2.71,0,4.06.07,1.74.4,3.44.87,5.11,1.18,4.17,3.34,7.69,6.94,10.22,3.01,2.11,6.41,3.06,10.04,3.29,1.15.11,2.31.12,3.46,0,2.91-.32,5.68-1.15,8.29-2.45,6.85-3.4,10.28-9.09,10.96-16.58.12-1.55.12-3.1,0-4.66Zm-8.62,7.86c-.13,2.38-.54,4.7-1.62,6.85-1.41,2.8-3.68,4.4-6.8,4.78-.89.11-1.78.11-2.67,0-3.22-.36-5.78-1.92-7.84-4.37-2.07-2.46-3.25-5.35-3.91-8.45-.77-3.62-.93-7.27-.24-10.93.33-1.79.91-3.49,1.98-4.98,1.48-2.06,3.41-3.45,6-3.78,1.03-.1,2.06-.11,3.08,0,3.14.35,5.65,1.87,7.68,4.23,2.14,2.49,3.28,5.45,3.91,8.63.22,1.11.39,2.23.43,3.37.11,1.55.11,3.1,0,4.64Z"/>
  <path class="cls-4" d="m493.22,96.2c-4.24,0-7.58,3.25-7.58,7.51,0,4.39,3.46,7.63,7.53,7.52,3.9.12,7.57-2.92,7.59-7.59.01-4.42-3.57-7.45-7.54-7.44Zm-.09,14.41c-3.79-.06-6.9-3.15-6.74-6.93-.1-3.53,2.77-6.76,6.79-6.8,3.94-.04,6.87,3.05,6.88,6.92,0,3.54-3.05,6.87-6.92,6.82Z"/>
  <path class="cls-2" d="m495.04,103.92c.85-.39,1.37-1.79,1.11-2.97-.24-1.14-1.04-1.86-2.22-1.93-.96-.06-1.93,0-2.9-.03-.48-.01-.64.2-.63.66.01,2.7,0,5.39,0,8.09,0,.42.06.7.58.71.51,0,.62-.25.61-.68-.01-.87,0-1.73,0-2.6,0-.88.31-1.1,1.16-.91.35.08.47.34.6.61.44.93.86,1.87,1.3,2.81.4.85.42.85,1.47.66,0-.06.03-.14,0-.19-.47-1.03-.94-2.06-1.41-3.08-.34-.74-.37-.8.32-1.12Zm-1.28-.7c-.49.05-.99.11-1.48.15-.44.04-.71-.1-.68-.6.02-.36,0-.73,0-1.1h0c0-.4,0-.8,0-1.2,0-.27.1-.47.4-.46.69.01,1.4-.12,2.08.11.79.26,1.04.75.94,1.83-.08.79-.49,1.2-1.26,1.27Z"/>
</svg>