<?xml version="1.0" encoding="UTF-8"?>
<svg id="Capa_1" data-name="Capa 1" xmlns="http://www.w3.org/2000/svg" viewBox="0 0 489.99 204.66">
  <defs>
    <style>
      .cls-1 {
        fill: #f05133;
      }

      .cls-2 {
        fill: #413000;
      }
    </style>
  </defs>
  <path class="cls-1" d="m110.17,76.86c6.45,6.46,12.88,12.93,19.35,19.36.85.85,1.15,1.51.77,2.79-2.52,8.56,2.48,17.4,10.94,19.57,8.71,2.24,17.49-2.88,19.28-11.71,2.46-12.13-7.8-20.93-18.51-18.66-1.45.31-2.29.05-3.29-.97-6.59-6.68-13.22-13.31-19.91-19.89-1-.98-1.2-1.81-.89-3.13,2.08-8.89-4.02-17.64-13.05-18.82-1.44-.19-2.87-.2-4.31,0-2.31.95-3.78-.14-5.38-1.78-6.54-6.72-13.21-13.32-19.88-19.91-.92-.91-1.04-1.4-.05-2.37,5.69-5.59,11.42-11.14,16.91-16.92,5.27-5.56,14.45-5.32,19.81.07,29.31,29.51,58.79,58.85,88.2,88.27,5.92,5.92,5.9,13.75-.02,19.68-29.13,29.15-58.29,58.27-87.4,87.44-2.37,2.38-5.09,3.96-8.3,4.79h-4.21c-3.47-.35-6.11-2.16-8.52-4.58-28.95-28.96-57.93-57.89-86.91-86.83-.95-.95-1.86-1.92-2.67-2.99-1.44-1.9-2.28-3.96-2.08-6.39.08-1.37-.16-2.75.14-4.11.45-3.04,2.07-5.4,4.2-7.52,15.79-15.77,31.57-31.56,47.35-47.34,4.06-4.06,8.14-8.1,12.16-12.19.83-.84,1.3-1,2.23-.06,6.99,7.08,14.04,14.1,21.1,21.11.72.71,1,1.32.6,2.32-.35.87-.44,1.85-.64,2.78-.28,1.28-.23,2.57-.03,3.86.73,5.44,3.57,9.46,8.38,12.04.92.49,1.27.96,1.27,2.01-.03,17.78-.03,35.57,0,53.35,0,1.05-.34,1.53-1.26,2.02-4.8,2.59-7.65,6.6-8.38,12.04-.21,1.29-.25,2.57.02,3.86.98,7.13,6.49,12.68,13.38,13.46,1.45.18,2.9.2,4.35,0,6.1-.71,11.41-5.39,12.95-11.42,1.61-6.28-.72-12.91-5.85-16.62-.72-.52-1.48-.99-2.21-1.48-.29-.61-.15-1.25-.15-1.88,0-17.11-.02-34.21.03-51.32,0-.61-.62-1.55.53-1.9Z"/>
  <path class="cls-2" d="m456.12,119.01c.22,7.43,4.01,11.15,11.44,11.43,5.41.2,10.61-.81,15.68-2.54,1.23-.42,1.79-.52,2.22,1.03,1.33,4.77,2.86,9.48,4.36,14.2.32,1,.24,1.51-.85,1.99-12.2,5.42-24.83,8.28-38.27,6.81-4.34-.47-8.47-1.51-12.33-3.54-3.17-1.66-5.7-4.03-7.58-7.09-2.99-4.87-3.99-10.29-4.42-15.86.13-.43.09-.88.09-1.33,0-17.8,0-35.61,0-53.41,0-.5.08-1.02-.13-1.51-.1-.5-.11-1.05-.74-1.22-4.09-.3-8.19-.04-12.28-.14-.68-.02-1.39.16-2.05-.17-.15-5.73-.31-11.46.09-17.18,2.46-.54,4.95-.95,7.36-1.65,8.58-2.52,13.5-8.54,16.04-16.87,1.2-3.94,1.61-8,2.31-12.01.08-.43.21-.86.32-1.29,4.11-.4,8.22-.12,12.34-.15,2.01-.02,4.04-.28,6.03.19l.03-.03c.35.66.17,1.37.17,2.06.01,8.32,0,16.63.02,24.95,0,.68-.2,1.4.2,2.05.1.4.47.36.75.47,1.89.3,3.8.12,5.69.12,6.79.03,13.58,0,20.38.02.62,0,1.27-.18,1.86.19,0,6.36.02,12.72.02,19.08-.64.43-1.36.21-2.04.21-8.32.02-16.63,0-24.95.03-.63,0-1.41-.39-1.91.39-.04,16.48,0,32.96-.01,49.44,0,.44-.08.89.16,1.31Z"/>
  <path class="cls-2" d="m357.42,136.59c3.41-.45,6.82-.9,10.23-1.34,1.92-.25,2.7-1.34,2.69-3.25-.02-19.43-.02-38.86-.01-58.29,0-2.03-.88-3.33-2.87-3.98-2.9-.94-5.73-2.12-8.65-2.99-1.37-.41-1.68-1.12-1.5-2.32.56-3.79,1.14-7.58,1.7-11.37.12-.82.19-1.64.29-2.46.37-.55.93-.31,1.4-.31,12.61-.01,25.22-.01,37.82,0,.43,0,.9-.12,1.27.23.01,26.52.02,53.03.03,79.55q0,4.76,4.77,5.44c2.71.39,5.43.74,8.15,1.11.09.09.25.18.25.28-.02,5.01.24,10.02-.12,15.02-.42.2-.88.13-1.32.13-17.7,0-35.41,0-53.11,0-.38,0-.77.03-1.13-.1-.46-3.8-.12-7.62-.18-11.43-.02-1.3-.34-2.64.27-3.91Z"/>
  <path class="cls-2" d="m382.56,34.73c-10.03-.08-15.56-4.91-17.53-13.5-1.78-7.76,1.82-16.45,8.25-19.42,3.79-1.75,7.78-2.11,11.97-1.58,2.3.29,4.54.59,6.61,1.61,4.85,2.39,7.3,6.36,8.04,11.7.43,3.07.35,6.06-.3,9.01-1.43,6.52-6.05,10.72-12.72,11.79-1.55.25-3.1.74-4.31.39Z"/>
  <path class="cls-2" d="m348.06,52.43c-.62-.5-1.35-.24-2.02-.24-11.53-.02-23.06-.01-34.6-.02-.69,0-1.4.13-2.08-.14-4.28-.86-8.58-1.55-12.95-1.65-2.7-.2-5.39-.2-8.09,0-4.07.01-8.07.65-12.01,1.6-9.34,2.24-17.44,6.47-22.96,14.63-5.72,8.46-7.05,17.89-5.6,27.8,1.16,7.91,4.7,14.58,10.97,19.65,1.6,1.29,3.39,2.34,5.16,3.55-4.38,4.08-8.72,8.03-12.65,12.39-2.28,2.53-4.16,5.32-4.68,8.8-.25,1.69-.22,3.38-.02,5.07.68,4.96,3.75,8.03,8.53,10.26-1.59,1.48-3.1,2.75-4.45,4.17-3.56,3.78-6.12,8.06-6.4,13.42-.17,1.55-.21,3.09.02,4.64.56,5.63,3.17,10.09,7.72,13.45,5.19,3.84,11.25,5.49,17.4,6.76,5.61,1.17,11.32,1.59,17.05,1.65,4.1.18,8.21.21,12.31-.02,3.23-.18,6.46-.35,9.66-.83,6.32-.96,12.51-2.35,18.35-5.01,16.56-7.56,21.78-20.41,19.37-36.13-1.25-8.2-6.14-13.6-13.82-16.63-7.13-2.81-14.66-3.46-22.16-4.24-4.64-.48-9.29-.79-13.94-1.09-6.94-.44-13.89-.83-20.84-1.17-1.29-.06-1.46-.35-.79-1.4,1.61-2.52,3.23-5.04,4.72-7.63.69-1.19,1.37-1.4,2.74-1.14,11.12,2.17,22.2,2.18,32.95-1.77,12.78-4.7,20.65-13.54,22.13-27.43.17-2.46.21-4.92-.02-7.38-.57-5.57-2.8-10.47-6.04-14.97-.24-.33-1.04-.46-.61-1.14.3-.47.81-.32,1.22-.28,3.18.27,6.34-.3,9.48-.51,1.91-.13,3.88-.03,5.81-.5.99-.24,1.18-.55,1.18-1.44-.04-5.03-.03-10.06-.04-15.09Zm-70.84,107.4c2.06.25,4.15.19,6.24.38,4.78.44,9.6.51,14.39.84,4.2.29,8.4.74,12.59,1.14.44.04.87.19,1.3.3,2.56.65,5.02,1.6,5.62,4.5.67,3.24-.33,6.07-2.96,8.18-3.04,2.43-6.71,3.23-10.43,3.85-4.22.7-8.47.91-12.78.72-5.53.27-11.04-.13-16.37-1.81-7.84-2.46-9.91-8.08-5.33-14.88,2.71-4.02,1.48-3.99,7.72-3.23Zm34.15-70.34c-1.03,8.08-6.87,13.34-15.73,14.18-1.67.25-3.34.2-5.02.03-2.99-.24-5.9-.84-8.53-2.35-4.13-2.36-6.36-5.97-6.83-10.68-.22-2.08-.2-4.16-.01-6.24.67-8.12,6.72-13.9,14.77-14.56,3-.24,5.95-.3,8.84.27,7.57,1.51,11.81,6.6,12.54,14.7.15,1.55.22,3.09-.04,4.64Z"/>
</svg>