<?xml version="1.0" encoding="UTF-8"?>
<svg id="Capa_1" data-name="Capa 1" xmlns="http://www.w3.org/2000/svg" viewBox="0 0 408.89 162.25">
  <defs>
    <style>
      .cls-1 {
        fill: #2e7d32;
      }

      .cls-2 {
        fill: #378d3b;
      }

      .cls-3 {
        fill: #36464e;
      }

      .cls-4 {
        fill: #4bae4f;
      }
    </style>
  </defs>
  <path class="cls-3" d="m93.54,151.74c-.65,1.6-1.75,1.94-3.34,1.02-5.9-3.43-11.79-6.85-17.69-10.28-.66-.38-1.3-.79-1.97-1.15-1.28-.68-2.09-1.7-2.36-3.14-.16-.46-.08-.93-.08-1.39,0-11.95,0-23.9,0-35.86,0-.46.09-.94-.09-1.39-.17-.72-.68-1.14-1.3-1.48-6.2-3.42-12.39-6.84-18.59-10.26-.9-.5-1.81-.42-2.67.06-6.2,3.41-12.4,6.82-18.59,10.25-.99.55-1.32,1.42-1.32,2.55.02,12.09,0,24.18.03,36.27,0,1.97-.69,3.4-2.42,4.4-6.61,3.81-13.2,7.66-19.8,11.49-1.34.78-2.12.56-3.34-.84v-65.42c.68-2.03,2.25-3.12,4.04-4.1,13.32-7.33,26.62-14.7,39.92-22.07,1.92-1.06,3.8-1.1,5.69-.06,11.71,6.47,23.42,12.96,35.13,19.45,2.04,1.13,4.06,2.29,6.11,3.39,1.39.75,2.31,1.83,2.66,3.38.2.4.11.84.11,1.26,0,20.89,0,41.78,0,62.67,0,.42.1.85-.11,1.26Z"/>
  <path class="cls-3" d="m213.11,86.56c.26-1.55,1.21-2.57,2.53-3.3,8.31-4.6,16.62-9.2,24.92-13.8,5.34-2.96,10.69-5.89,16.01-8.89,2.16-1.22,4.19-1.28,6.38-.04,5.75,3.26,11.55,6.44,17.33,9.65.21.12.45.21.82.38,0-.6,0-1.05,0-1.5,0-22.02,0-44.03,0-66.05,0-2.9,1.32-3.74,3.82-2.36,6.42,3.54,12.82,7.13,19.24,10.68,1.74.96,2.51,2.4,2.51,4.38-.01,39.22-.01,78.44,0,117.66,0,2.19-.92,3.74-2.8,4.78-10.94,6.06-21.88,12.12-32.82,18.18-2.48,1.38-5.04,2.64-7.44,4.14-2.5,1.57-4.83,1.58-7.39.15-11.54-6.47-23.12-12.86-34.68-19.28-1.82-1.01-3.64-2-5.46-3-1.42-.78-2.59-1.77-2.95-3.46-.19-.36-.11-.75-.11-1.13,0-15.35,0-30.71,0-46.06,0-.38-.08-.77.11-1.13Z"/>
  <path class="cls-4" d="m195.98,134.11c-.02,2.01-1.01,3.44-2.72,4.4-9.29,5.17-18.59,10.33-27.89,15.48-4.43,2.46-8.87,4.9-13.29,7.37-2.1,1.17-4.14,1.25-6.16-.16-2.6-4.59-5.37-9.08-8.09-13.59-6.23-10.36-12.44-20.73-18.71-31.07-5.32-8.77-10.61-17.56-15.9-26.35-.4-.66-.78-1.32-.96-2.07-.22-2.2.96-3.6,2.73-4.6,4.56-2.56,9.15-5.08,13.73-7.62,9.16-5.07,18.31-10.14,27.48-15.19,1.85-1.02,3.73-1.17,5.59.02.98.93,1.51,2.15,2.19,3.28,7.42,12.36,14.86,24.71,22.31,37.05,6.22,10.3,12.42,20.62,18.68,30.9.29.47.58.94.79,1.45.12.21.06.48.21.68Z"/>
  <path class="cls-3" d="m315.33,86.56c.35-1.55,1.27-2.61,2.66-3.38,11.46-6.33,22.91-12.69,34.37-19.04,2.22-1.23,4.46-2.45,6.67-3.7,1.89-1.07,3.8-1.21,5.7-.16,13.69,7.57,27.35,15.17,41.05,22.72,2.18,1.2,3.14,2.91,3.11,5.38-.06,4.94-.05,9.88,0,14.81.02,1.95-.8,3.32-2.46,4.27-6.53,3.77-13.06,7.56-19.6,11.33-1.94,1.12-3.5.24-3.51-1.99-.01-5.32-.03-10.64.01-15.96.01-1.35-.48-2.21-1.67-2.87-6.09-3.34-12.16-6.74-18.24-10.1-.91-.5-1.84-.53-2.79-.01-6.08,3.36-12.17,6.72-18.26,10.07-.68.37-1.33.78-1.51,1.62-.03.08-.08.16-.08.24-.03,7.23-.02,14.46,0,21.68,0,.14.06.24.11.36.19.85.88,1.2,1.55,1.56,10.9,5.94,21.8,11.89,32.7,17.83,2.72,1.48,5.43,2.98,8.15,4.45,1.07.58,1.86,1.28,1.84,2.64-.02,1.27-.81,1.89-1.77,2.42-6.15,3.4-12.31,6.8-18.47,10.21-1.95,1.08-3.83,1.05-5.79-.04-13.63-7.57-27.27-15.11-40.92-22.65-1.4-.77-2.46-1.79-2.85-3.4-.19-.36-.11-.75-.11-1.13,0-15.35,0-30.71,0-46.06,0-.38-.08-.77.11-1.13Z"/>
  <path class="cls-1" d="m102.26,88.13c2.57,4.23,5.14,8.46,7.71,12.7,4.58,7.57,9.17,15.14,13.74,22.71,4.9,8.12,9.78,16.25,14.67,24.37,2.42,4.03,4.84,8.06,7.24,12.09.21.36.74.67.29,1.2-6.55-3.6-13.11-7.2-19.65-10.82-6.99-3.87-13.95-7.78-20.95-11.63-2.1-1.15-3.13-2.73-3.12-5.2.05-14.64.03-29.27.03-43.91,0-.51.02-1.02.04-1.53Z"/>
  <path class="cls-1" d="m195.71,133.57c-1.56-2.01-2.72-4.27-4.04-6.43-5.2-8.48-10.33-17.01-15.46-25.53-3.89-6.45-7.75-12.93-11.63-19.39-4.16-6.93-8.33-13.86-12.49-20.79-.13-.21-.19-.46-.29-.69,4.19,2.29,8.38,4.57,12.56,6.88,9.58,5.29,19.15,10.6,28.74,15.88,1.74.96,2.73,2.35,2.88,4.33-.2.49-.1,1.01-.1,1.51,0,14.29,0,28.57-.01,42.86,0,.45.16.94-.15,1.36Z"/>
  <path class="cls-2" d="m369.83,110.78c1.01,3.45-.79,5.22-3.76,6.29-.04.01-.08.04-.11.07-2.73,2.47-5.4,2-8.11-.08-.8-.61-1.72-1.09-2.64-1.51-.78-.35-1.05-.86-1.04-1.68.04-2.16.03-4.33,0-6.49,0-.71.23-1.16.89-1.51,2.02-1.07,4-2.21,5.98-3.34.64-.37,1.19-.43,1.88-.01,1.86,1.1,3.74,2.16,5.67,3.12,1.01.5,1.31,1.18,1.24,2.23-.07.97-.02,1.95-.02,2.93Z"/>
</svg>