<?xml version="1.0" encoding="UTF-8"?>
<svg id="Capa_1" data-name="Capa 1" xmlns="http://www.w3.org/2000/svg" viewBox="0 0 402.61 400.54">
  <defs>
    <style>
      .cls-1 {
        fill: #3772a2;
      }

      .cls-2 {
        fill: #fecb3b;
      }
    </style>
  </defs>
  <path class="cls-2" d="m402.01,183.69c-.26-3.43-.58-6.85-.98-10.27-.49-4.22-1.15-8.41-1.98-12.57-1.58-7.93-3.78-15.66-6.98-23.1-3.02-7.01-6.8-13.55-11.83-19.32-4.46-5.12-9.65-9.35-15.74-12.41-5.19-2.6-10.65-4.27-16.47-4.69-.3-.14-.63-.11-.95-.11-11.48,0-22.96,0-34.44,0-.37,0-.76-.09-1.09.17h0c-.32.54-.16,1.14-.16,1.72-.01,16.18,0,32.35-.01,48.53,0,.58.12,1.18-.12,1.75.07,1.68-.21,3.33-.45,4.97-.65,4.47-1.67,8.86-3.16,13.13-2.34,6.71-5.67,12.87-10.41,18.2-5.4,6.08-12.01,10.35-19.66,13.03-3.6,1.26-7.29,2.17-11.08,2.68-2.18.29-4.35.64-6.56.61-.62.25-1.28.12-1.91.12-33.17,0-66.34,0-99.52.01-.64,0-1.29-.12-1.92.12-1.71.15-3.43.21-5.13.46-2.17.32-4.34.68-6.49,1.16-6.5,1.43-12.65,3.72-18.36,7.15-4.32,2.6-8.13,5.81-11.38,9.66-4.62,5.48-7.59,11.8-9.3,18.73-.97,3.92-1.43,7.92-1.66,11.94-.25.62-.12,1.28-.12,1.91,0,29.84,0,59.68-.01,89.52,0,.64.12,1.29-.12,1.92,0,.73,0,1.45,0,2.18.33.85-.09,1.78.25,2.63.16.95.29,1.91.49,2.86,1.61,7.57,5.3,14.03,10.62,19.58,4.55,4.75,9.91,8.41,15.72,11.41,5.94,3.07,12.2,5.33,18.63,7.11,3.62,1,7.29,1.83,10.97,2.53,2.63.5,5.28.94,7.94,1.32,2.23.32,4.49.47,6.72.78,3.04.42,6.09.62,9.14.82,3.48.23,6.97.48,10.47.44,5.29.18,10.57.18,15.86,0,3.06-.03,6.12-.12,9.18-.35,2.19-.17,4.4-.19,6.59-.42,3.57-.37,7.16-.67,10.72-1.16,3.14-.43,6.26-.9,9.37-1.47,4.48-.82,8.93-1.85,13.3-3.15,6.55-1.95,12.91-4.38,18.83-7.84,3.11-1.82,6.06-3.88,8.73-6.32,3.81-3.48,6.97-7.45,8.97-12.25,1.46-3.51,2.32-7.14,2.05-10.98-.24-.57-.12-1.17-.12-1.75,0-14.22,0-28.44-.02-42.65,0-.57.19-1.18-.19-1.72-.7-.02-1.4-.06-2.09-.06-30.97,0-61.94,0-92.91,0-.7,0-1.4-.03-2.09-.05-.35-.49-.18-1.04-.18-1.57-.02-3.28-.02-6.56,0-9.84.01-2.63-.33-2.26,2.34-2.26,46.19,0,92.38,0,138.58-.01.64,0,1.29.1,1.92-.1,2.47-.15,4.91-.55,7.32-1.09,10.72-2.43,19.92-7.6,27.6-15.46,4.27-4.37,7.78-9.32,10.69-14.7,3-5.55,5.34-11.38,7.16-17.42,1.77-5.88,3.05-11.86,3.98-17.92.48-3.13.82-6.28,1.13-9.44.4-4.07.67-8.15.78-12.23.22-8.17.14-16.34-.48-24.51Zm-145.41,150.86c9.81.01,17.52,8,17.47,17.62-.02,9.56-7.77,17.52-17.61,17.48-9.43-.03-17.5-7.55-17.47-17.62.03-9.72,7.75-17.49,17.61-17.48Z"/>
  <path class="cls-1" d="m298.59,49.47c-.3-.75.07-1.57-.23-2.32-.88-6.76-3.43-12.84-7.49-18.3-2.46-3.3-5.33-6.19-8.54-8.76-5.12-4.1-10.8-7.22-16.83-9.74-8.58-3.58-17.52-5.83-26.65-7.4-5.99-1.03-12.02-1.75-18.08-2.19-4.72-.34-9.45-.58-14.17-.68-8.6-.18-17.2-.06-25.8.5-4.29.28-8.58.63-12.85,1.13-5.23.61-10.43,1.43-15.59,2.53-7.69,1.64-15.21,3.83-22.39,7.09-5.07,2.3-9.82,5.11-14.06,8.74-3.97,3.4-7.25,7.34-9.44,12.13-1.7,3.72-2.71,7.59-2.45,11.72.26.57.13,1.17.13,1.75,0,13.85,0,27.71,0,41.56,0,.38,0,.75,0,1.13.01,2.08-.22,1.9,1.9,1.9,3.55,0,7.1,0,10.65,0,27.74,0,55.49,0,83.23-.03,1.28,0,1.77.26,1.73,1.66-.1,3.98,0,7.96-.05,11.94-.5.63-1.2.31-1.8.31-44.6.02-89.19.02-133.79.01-.58,0-1.18.11-1.76-.12-4.71-.27-9.33.33-13.89,1.44-12.23,2.99-22.2,9.55-30.14,19.26-4.56,5.58-8.05,11.79-10.81,18.42-3.68,8.83-5.95,18.04-7.4,27.47-1.05,6.8-1.61,13.66-1.89,20.53-.21,5.16-.18,10.32-.05,15.48.33,1.84-.09,3.7.23,5.54.12,4.14.5,8.26.93,12.38.54,5.19,1.31,10.34,2.34,15.45,1.39,6.92,3.28,13.69,5.87,20.26,2.74,6.94,6.22,13.47,10.83,19.36,5.36,6.84,11.84,12.3,19.82,15.86,5.61,2.51,11.47,3.94,17.66,3.81.86-.02,1.72,0,2.58,0,10.22,0,20.43,0,30.65-.01.45-.52.22-1.14.22-1.7.01-16.18.01-32.37.02-48.55,0-.59-.1-1.18.11-1.76.01-2.86.51-5.67,1.03-8.46,1.37-7.29,3.77-14.21,7.6-20.59,4.2-7.01,9.77-12.63,16.88-16.7,5.52-3.15,11.46-5.09,17.7-6.16,3.23-.55,6.49-.85,9.77-1.01.63-.23,1.28-.12,1.92-.12,33.08,0,66.15,0,99.23-.01.64,0,1.29.1,1.92-.1,1.24.01,2.46-.16,3.69-.31,6.33-.79,12.44-2.38,18.31-4.9,5.38-2.31,10.28-5.38,14.55-9.41,6.18-5.84,10.2-12.96,12.42-21.14,1.19-4.38,1.77-8.84,2-13.37.22-.63.11-1.28.11-1.92,0-29.63,0-59.26.01-88.89,0-.64-.11-1.29.11-1.92,0-.93,0-1.86,0-2.8Zm-152.48,16.52c-9.05.02-17.56-7.3-17.58-17.52-.02-10.23,8.46-17.72,17.5-17.55,9.02-.2,17.58,7.12,17.58,17.47,0,10.75-8.86,17.58-17.5,17.59Z"/>
</svg>