<?xml version="1.0" encoding="UTF-8"?>
<svg id="Capa_1" data-name="Capa 1" xmlns="http://www.w3.org/2000/svg" viewBox="0 0 189.8 189.79">
  <defs>
    <style>
      .cls-1 {
        letter-spacing: 0em;
      }

      .cls-2 {
        letter-spacing: -.01em;
      }

      .cls-3 {
        font-family: MyriadConceptRoman-BlackSemiExtended, 'Myriad Variable Concept';
        font-size: 32.17px;
        font-variation-settings: 'wght' 900, 'wdth' 110;
        font-weight: 800;
      }

      .cls-4 {
        letter-spacing: 0em;
      }

      .cls-5 {
        letter-spacing: -.01em;
      }

      .cls-6 {
        fill: #fc0;
      }

      .cls-7 {
        letter-spacing: 0em;
      }

      .cls-8 {
        fill: #c60;
      }
    </style>
  </defs>
  <g>
    <path class="cls-6" d="m189.79,187.99c0-62.17,0-124.35,0-186.52,0-.48-.01-.96-.02-1.44-.48-.01-.96-.04-1.44-.04H1.35c-.44,0-.88.02-1.32.03C.02.43,0,.83,0,1.23,0,63.63,0,126.04,0,188.45c0,.44.02.88.04,1.32.48,0,.96.02,1.44.02,62.18,0,124.35,0,186.53,0,2.02,0,1.79.24,1.79-1.79Zm-112.18-85.03c0,.32.06.64-.09.94-.14,7.71-1.28,15.23-4.45,22.34-3.79,8.49-10.14,14.19-18.89,17.21-4.2,1.45-8.54,2.17-12.98,2.48-8.23.57-16.3-.15-24.25-2.39-1.04-.29-1.23-.78-1.1-1.69.5-3.54.98-7.09,1.47-10.64.47-3.39.95-6.77,1.39-10.17.09-.68.19-.92.94-.66,4.09,1.47,8.36,2.1,12.66,2.13,3.82.03,7.66-.24,10.95-2.66,3.03-2.23,4.58-5.35,5.43-8.89.74-3.11,1.02-6.28,1.01-9.48-.02-24.18-.01-48.37-.01-72.55q0-1.57,1.52-1.57c8.75,0,17.51,0,26.26.01.26.32.14.69.14,1.04,0,24.85,0,49.69,0,74.54Zm95.81,9.65c-.51,6.45-2.71,12.34-6.75,17.47-5.18,6.58-12.06,10.55-19.93,12.96-4.5,1.38-9.13,2.11-13.83,2.46-5.75.42-11.46.28-17.18-.49-7.47-1-14.7-2.76-21.53-6.03-1.14-.55-1.46-1.1-1.13-2.39,1.76-6.82,3.41-13.67,5.08-20.51.22-.89.47-1.14,1.4-.65,6.85,3.6,14.17,5.8,21.82,6.69,5.67.66,11.38.8,16.88-1.34,7.23-2.81,8.65-10.56,5.22-15.38-.76-1.06-1.75-1.95-2.64-2.92,0,0,0,0,0,0-5.58-3.86-12.08-5.65-18.28-8.14-7.57-3.04-14.6-6.94-20.24-13-.27-.29-.51-.6-.77-.9,0,0,0,0,0,0-1.43-1.25-2.38-2.87-3.33-4.48-3.46-5.85-4.44-12.19-3.72-18.89.56-5.23,2.28-9.99,5.21-14.34,3.02-4.5,6.99-7.93,11.64-10.64,5.96-3.47,12.46-5.24,19.24-6.07,3.24-.4,6.51-.62,9.79-.5,9.25.33,18.32,1.56,26.9,5.3.07.03.15.06.22.1,1.87.99,1.84.34,1.21,2.58-1.83,6.6-3.7,13.19-5.49,19.79-.27.98-.49,1.15-1.45.68-5.45-2.66-11.18-4.35-17.23-5-4.1-.44-8.17-.68-12.23.27-3.05.72-5.91,1.87-7.88,4.42-3.07,3.96-2.15,9.26,1.98,12.35,3.79,2.84,8.13,4.56,12.47,6.26,4.83,1.9,9.73,3.61,14.33,6.04,4.88,2.57,9.36,5.68,13,9.85,3.64,4.17,5.91,9.02,6.86,14.51.57,3.3.64,6.62.38,9.9Z"/>
    <path class="cls-8" d="m77.47,27.38c-8.75,0-17.51,0-26.26-.01q-1.52,0-1.52,1.57c0,24.18,0,48.37.01,72.55,0,3.21-.27,6.37-1.01,9.48-.84,3.54-2.4,6.65-5.43,8.89-3.29,2.42-7.12,2.69-10.95,2.66-4.31-.03-8.57-.66-12.66-2.13-.74-.27-.85-.02-.94.66-.43,3.39-.92,6.78-1.39,10.17-.49,3.55-.97,7.09-1.47,10.64-.13.91.06,1.39,1.1,1.69,7.95,2.24,16.02,2.96,24.25,2.39,4.44-.31,8.78-1.03,12.98-2.48,8.76-3.02,15.11-8.72,18.89-17.21,3.17-7.11,4.31-14.63,4.45-22.34.15-.3.09-.63.09-.94,0-24.85,0-49.69,0-74.54,0-.35.12-.72-.14-1.04Zm-1.78,74.61c0,.4.07.8-.08,1.19-.21,6.23-.88,12.38-2.83,18.35-.73,2.23-1.61,4.29-2.65,6.18-4.48,8.19-11.77,13.18-21.63,15.26-2.77.58-5.57.99-8.4,1.04-2.66.12-5.33.12-7.99,0-4.52-.19-8.96-.9-13.34-1.99-.68-.17-.88-.47-.78-1.16.82-5.8,1.62-11.61,2.4-17.42.02-.18.06-.3.12-.39.16-.25.43-.14.79-.05,4.31,1.12,8.69,1.67,13.15,1.48,4.63-.2,8.93-1.31,12.18-4.93,1-1.11,1.78-2.31,2.41-3.58,1.04-2.12,1.64-4.43,2.06-6.82.29-1.65.48-3.32.52-5,.19-.46.09-.95.09-1.42,0-23.93,0-47.87,0-71.8,0-.47-.09-.96.09-1.42h0s0,0,0,0h0c.26-.14.55-.1.82-.1,7.34,0,14.67,0,22.01,0,.31,0,.64-.08.93.12l.03-.02c.18.38.09.79.09,1.18,0,23.77,0,47.54,0,71.3Z"/>
    <path class="cls-8" d="m166.18,88.19c-3.64-4.17-8.12-7.28-13-9.85-4.6-2.43-9.5-4.14-14.33-6.04-4.34-1.71-8.68-3.43-12.47-6.26-4.13-3.09-5.04-8.38-1.98-12.35,1.98-2.55,4.83-3.71,7.88-4.42,4.05-.95,8.13-.72,12.23-.27,6.05.65,11.78,2.34,17.23,5,.96.47,1.18.29,1.45-.68,1.79-6.61,3.66-13.2,5.49-19.79.62-2.24.66-1.59-1.21-2.58-.07-.04-.15-.07-.22-.1-8.58-3.74-17.65-4.97-26.9-5.3-3.27-.12-6.55.1-9.79.5-6.77.83-13.28,2.61-19.24,6.07-4.65,2.71-8.62,6.14-11.64,10.64-2.93,4.36-4.65,9.11-5.21,14.34-.71,6.7.26,13.04,3.72,18.89.95,1.6,1.9,3.22,3.33,4.48,0,0,0,0,0,0,.26.3.5.61.77.9,5.64,6.06,12.68,9.95,20.24,13,6.19,2.49,12.7,4.28,18.28,8.14,0,0,0,0,0,0,.89.97,1.89,1.86,2.64,2.92,3.43,4.82,2.01,12.57-5.22,15.38-5.5,2.14-11.21,2-16.88,1.34-7.65-.9-14.97-3.1-21.82-6.69-.93-.49-1.18-.24-1.4.65-1.67,6.84-3.32,13.69-5.08,20.51-.33,1.28-.02,1.84,1.13,2.39,6.83,3.27,14.07,5.03,21.53,6.03,5.71.76,11.43.91,17.18.49,4.7-.35,9.33-1.08,13.83-2.46,7.88-2.41,14.76-6.38,19.93-12.96,4.04-5.13,6.24-11.02,6.75-17.47.26-3.28.19-6.6-.38-9.9-.95-5.5-3.22-10.34-6.86-14.51Zm5.28,23.97c-1.17,13.43-8.67,22.28-20.8,27.47-5.86,2.51-12.05,3.6-18.38,4.11-3.43.27-6.86.3-10.27.13-4.13-.2-8.25-.79-12.31-1.67-4.68-1.01-9.26-2.38-13.64-4.34-.77-.35-1.07-.69-.82-1.67,1.55-6.02,2.99-12.07,4.48-18.15,7.91,3.67,16.09,6.08,24.78,6.5,2.18.14,4.35.14,6.53,0,4.03-.31,7.84-1.25,11.24-3.6,3.54-2.45,5.58-7.57,4.74-11.8-.65-3.27-2.23-5.85-4.94-7.76-1.98-1.83-4.4-2.94-6.81-4.02-6.29-2.8-13-4.57-19.07-7.9-4.72-2.59-9.11-5.59-12.79-9.54-.24-.26-.44-.54-.67-.82-3.18-3.79-5.38-8.1-6.14-12.99-.91-5.89-.32-11.65,2.05-17.21,1.82-4.28,4.56-7.85,7.98-10.89,3.36-2.99,7.25-5.2,11.47-6.8,5.87-2.22,11.97-3.2,18.2-3.45,1.76-.1,3.52-.11,5.28,0,7.22.24,14.3,1.28,21.15,3.67,1.08.38,2.11.87,3.2,1.22.72.24.83.54.62,1.27l-4.56,16.27c-.46,1.67-.42,1.64-1.95.97-4.24-1.85-8.69-3.03-13.26-3.74-3.1-.48-6.23-.75-9.37-.64-3.77.13-7.46.69-10.83,2.61-6.22,3.54-7.92,10.98-3.63,16.23,1.81,2.21,4.2,3.66,6.7,4.95,4.62,2.39,9.51,4.11,14.34,5.99,6.28,2.44,12.27,5.4,17.42,9.85,7.88,6.8,10.94,15.58,10.06,25.73Z"/>
  </g>
  <text class="cls-3" transform="translate(15.81 180.44)"><tspan class="cls-2" x="0" y="0">J</tspan><tspan class="cls-5" x="14.73" y="0">a</tspan><tspan class="cls-7" x="33.04" y="0">v</tspan><tspan x="51.96" y="0">a</tspan><tspan class="cls-4" x="70.68" y="0">S</tspan><tspan x="90.53" y="0">c</tspan><tspan class="cls-1" x="106.36" y="0">r</tspan><tspan x="120.1" y="0">ipt</tspan></text>
</svg>