<?xml version="1.0" encoding="UTF-8"?>
<svg id="Capa_1" data-name="Capa 1" xmlns="http://www.w3.org/2000/svg" viewBox="0 0 301.83 561.34">
  <defs>
    <style>
      .cls-1 {
        fill: #e87002;
      }

      .cls-2 {
        fill: #e77002;
      }

      .cls-3 {
        fill: #5382a1;
      }

      .cls-4 {
        fill: #e76f00;
      }
    </style>
  </defs>
  <path class="cls-4" d="m189.1,0c.34.4.69.79,1.01,1.2,4.01,5.13,6.59,10.92,7.95,17.26,1.73,8.1,1.18,16.11-1.05,24.05-2.25,8.03-6.02,15.35-10.65,22.24-5.65,8.42-12.39,15.9-19.69,22.9-5.72,5.48-11.85,10.5-18.01,15.47-6.35,5.12-12.28,10.7-17.4,17.09-3.63,4.54-6.73,9.4-8.89,14.82-3.46,8.7-3.6,17.49-.76,26.36,1.66,5.18,4.13,9.97,6.93,14.61,3.3,5.48,7.05,10.66,10.7,15.91,3.5,5.03,6.96,10.09,9.81,15.53.54,1.03,1.09,2.06,1.51,3.17-.25.08-.33-.07-.43-.15-9.2-8.33-18.28-16.78-26.7-25.92-5.68-6.17-11.02-12.61-15.45-19.76-3.14-5.07-5.75-10.38-7.18-16.21-2.37-9.69-.65-18.63,4.98-26.85,3.91-5.72,8.54-10.8,13.56-15.55,6.06-5.74,12.55-10.96,19.1-16.12,6.9-5.44,13.89-10.78,20.55-16.52,6.18-5.32,12.1-10.9,17.25-17.26,4.94-6.11,9.02-12.72,11.65-20.16,1.78-5.05,2.82-10.25,3.12-15.61.38-6.75-.41-13.37-1.99-19.91-.04-.14-.05-.29-.08-.44.05-.05.1-.1.16-.15Z"/>
  <path class="cls-4" d="m150.96,441.58c2.25,7.26,4.49,14.53,6.74,21.79,3.23,10.42,6.49,20.83,9.69,31.26.99,3.24,1.57,6.58,2.35,9.87.49,2.07.95,4.15,1.42,6.23.06.28.16.54.24.85.39-.26.4-.63.51-.94,5.07-14.2,9.29-28.63,12.52-43.36,1.75-7.99,3.23-16.02,4.31-24.13.07-.53.15-1.05.23-1.58.2-.25.49-.16.74-.16,5.87,0,11.75,0,17.62,0,.25,0,.54-.09.75.16-1.53,8.81-3.42,17.54-5.58,26.21-4.33,17.33-9.78,34.29-16.69,50.77-1.44,3.44-2.97,6.83-4.52,10.23-.31.69-.67.93-1.44.93-6.81-.04-13.62-.02-20.43-.02-1.07,0-1.08,0-1.39-1.02-5.08-16.54-10.16-33.07-15.24-49.61-3.82-12.43-7.64-24.86-11.46-37.29.02-.41.33-.35.58-.35,6.22,0,12.44,0,18.66,0,.16,0,.29.05.39.18Z"/>
  <path class="cls-3" d="m69.43,327.74c-.77.06-1.47.13-2.17.16-6.9.32-13.53,1.92-20.02,4.18-3.49,1.21-6.93,2.55-10.13,4.42-1.19.69-2.33,1.46-3.27,2.47-.31.33-.62.68-.85,1.07-.71,1.2-.57,2.3.39,3.34.68.74,1.53,1.25,2.43,1.68,2.38,1.12,4.86,1.98,7.37,2.74,5.43,1.63,10.98,2.77,16.57,3.72,4.72.8,9.47,1.43,14.23,1.97,3.55.4,7.12.68,10.67,1.01,6.55.61,13.13.92,19.7,1.27,2.05.11,4.11.18,6.16.24,13.36.4,26.71.41,40.07.21,4.95-.08,9.89-.25,14.83-.44,4.71-.18,9.43-.41,14.14-.68,4.63-.26,9.26-.55,13.89-.91,5.5-.43,10.99-.91,16.47-1.48,5.45-.56,10.89-1.18,16.31-1.94,9.15-1.28,18.26-2.78,27.2-5.2,4.08-1.11,8.1-2.39,11.77-4.56,1.15-.68,2.23-1.45,3.17-2.41,2.69-2.73,2.85-5.79.43-8.78-.14-.18-.3-.34-.4-.58,2.41,1.1,4.72,2.35,6.19,4.7.94,1.5.96,3.09.25,4.69-.68,1.53-1.81,2.71-3.06,3.78-2.07,1.76-4.4,3.12-6.82,4.35-5.04,2.56-10.33,4.45-15.72,6.1-10.16,3.12-20.52,5.33-30.98,7.13-6.86,1.18-13.74,2.17-20.65,2.98-4.34.51-8.69.97-13.04,1.37-6.29.58-12.58,1.04-18.89,1.38-5.32.29-10.64.5-15.96.67-9.89.32-19.79.26-29.68.13-6.73-.08-13.46-.36-20.19-.7-4.86-.24-9.72-.54-14.58-.9-4.85-.36-9.7-.8-14.55-1.26-4.77-.45-9.54-.92-14.3-1.47-4.38-.5-8.75-1.12-13.12-1.69-4.86-.64-9.71-1.39-14.55-2.15-4.51-.71-8.99-1.55-13.28-3.2-1.71-.66-3.36-1.45-4.8-2.6-1.56-1.24-2.63-2.75-2.41-4.89.11-1.09.59-2.04,1.18-2.94,1.04-1.57,2.41-2.83,3.89-3.98,3.35-2.62,7.09-4.59,10.94-6.32,7.98-3.58,16.29-6.13,24.9-7.68,4.09-.74,8.21-1.2,12.37-1.03,2.36.1,4.7.38,6.9,1.34.33.15.72.22.98.68Z"/>
  <path class="cls-4" d="m38,515.09c-.07,4.6-.35,9.19-.92,13.77-1.2,9.63-5.53,17.51-12.95,23.73-4.32,3.62-9.11,6.45-14.35,8.51-.98.38-.98.38-1.68-.44-2.51-2.96-5.03-5.91-7.54-8.87-.2-.23-.38-.47-.56-.71.26-.4.69-.51,1.04-.71,4.37-2.49,8.21-5.61,11.44-9.48,2.95-3.54,4.67-7.62,5.38-12.15.65-4.14.89-8.32.95-12.5.15-.48.07-.98.07-1.47,0-34.41,0-68.83,0-103.24,0-1.59-.16-1.41,1.39-1.41,5.48,0,10.96,0,16.44,0,.41,0,.84-.07,1.25.07.19.4.1.83.1,1.24,0,34.14,0,68.28,0,102.42,0,.42.07.84-.07,1.25Z"/>
  <path class="cls-4" d="m164.02,223.98c1.7-1.6,3.19-3.22,4.54-4.97,2.88-3.75,5.13-7.83,6.17-12.48,1.42-6.32.3-12.24-3.02-17.77-1.28-2.13-2.86-4.03-4.46-5.92-3.95-4.66-7.48-9.6-10.32-15.02-2.57-4.92-4.48-10.07-5.32-15.58-1.09-7.22-.2-14.18,2.68-20.89,2.84-6.61,7.14-12.19,12.23-17.19,6.06-5.96,12.94-10.84,20.25-15.12,15.32-8.96,31.7-15.36,48.72-20.2.32-.09.66-.15,1.05-.24-.29.39-.67.52-1.01.72-11.23,6.58-22.31,13.38-32.86,21.01-6.3,4.55-12.39,9.36-17.85,14.91-3.35,3.4-6.4,7.04-8.71,11.24-2.31,4.19-3.56,8.63-3.19,13.46.24,3.15,1.16,6.12,2.44,8.98,1.8,4.01,4.16,7.69,6.67,11.28,2.12,3.02,4.27,6.02,6.42,9.02,2.35,3.27,4.26,6.76,5.26,10.69,1.52,5.96.8,11.7-1.71,17.25-1.95,4.31-4.69,8.09-7.89,11.54-5.59,6.01-12.08,10.88-19.16,15-.22.13-.42.33-.92.29Z"/>
  <path class="cls-3" d="m210.93,316.23c-3.82,1.66-7.7,3.11-11.63,4.42-9.08,3.01-18.35,5.22-27.8,6.67-4.51.69-9.04,1.23-13.59,1.6-6.26.52-12.53.73-18.81.6-5.33-.11-10.64-.46-15.93-1.05-6.77-.75-13.47-1.91-20.05-3.71-4.71-1.28-9.3-2.87-13.61-5.19-2.19-1.18-4.25-2.53-5.96-4.36-.79-.84-1.44-1.77-1.88-2.84-.72-1.74-.57-3.42.37-5.04.92-1.59,2.26-2.76,3.75-3.78,2.88-1.97,6.08-3.28,9.36-4.41,1.21-.42,2.42-.88,3.71-1.12-.04.42-.37.51-.59.69-.83.68-1.61,1.41-2.18,2.32-1.01,1.61-.8,3.03.62,4.27.72.63,1.56,1.08,2.45,1.44,2.55,1.06,5.23,1.61,7.94,2.01,4.29.63,8.61,1.01,12.92,1.43,7.92.77,15.85,1.19,23.81,1.12,5.22-.05,10.41-.37,15.6-.87,9.7-.93,19.29-2.52,28.85-4.36,1.15-.22,2.07-.07,3.09.54,5.91,3.48,12.08,6.44,18.44,9,.38.15.81.22,1.12.6Z"/>
  <path class="cls-3" d="m105.99,245.53c-5.75-.04-11.48-.33-17.22-.65-3.46-.19-6.91-.43-10.35-.75-9.05-.83-18.07-1.87-26.91-4.11-3.17-.8-6.3-1.75-9.17-3.4-.76-.44-1.47-.94-2.08-1.58-1.37-1.43-1.46-2.94-.27-4.52,1.18-1.56,2.8-2.56,4.48-3.47,2.68-1.45,5.46-2.68,8.26-3.87,8.45-3.6,17.15-6.42,26.13-8.4,5.01-1.1,10.07-1.94,15.18-2.45,3.97-.4,7.95-.61,11.97-.58-.05.44-.38.35-.61.41-8,2.04-15.94,4.27-23.7,7.09-3.07,1.12-6.11,2.33-9.02,3.85-1.66.86-3.28,1.77-4.62,3.12-1.88,1.9-1.68,3.5.63,4.87,2.06,1.22,4.36,1.79,6.66,2.28,4.62.99,9.3,1.52,14,1.89,11.55.91,23.11.97,34.68.82,5.59-.08,11.18-.26,16.77-.46,4.6-.17,9.2-.41,13.79-.67,4.56-.26,9.11-.55,13.66-.91,5.19-.41,10.38-.84,15.57-1.37,6.12-.63,12.24-1.36,18.34-2.17,9.65-1.27,19.27-2.68,28.86-4.34.21-.04.43-.02.72-.04-.29.4-.68.48-1.01.63-5.26,2.41-10.39,5.08-15.23,8.27-.36.24-.74.37-1.15.47-7.78,1.99-15.64,3.54-23.56,4.81-4.62.74-9.24,1.4-13.89,1.94-4,.47-8.01.89-12.02,1.26-6.36.58-12.73,1.04-19.11,1.39-3.3.18-6.61.33-9.92.45-2.78.1-5.55.2-8.33.21-.07.02-.14.07-.22.07-7.03.02-14.07.02-21.1,0-.07,0-.14-.05-.22-.07Z"/>
  <path class="cls-3" d="m89.99,255.9c-.88.81-1.7,1.56-2.41,2.4-.84.99-1.59,2.04-2.04,3.28-.71,1.94-.32,3.56,1.2,4.98,1.05.98,2.33,1.56,3.66,2.05,2.26.82,4.61,1.29,6.99,1.56,6.23.72,12.48,1.22,18.74,1.68,10.03.73,20.07.84,30.11.55,5.93-.17,11.84-.63,17.75-1.23,6.32-.63,12.61-1.43,18.89-2.38,5.9-.89,11.77-1.93,17.64-3.04.3-.06.61-.07.89-.17.5-.17.84-.02,1.22.33,3.45,3.15,7.34,5.67,11.57,7.65,1.13.53,2.29.99,3.64,1.57-1.55.44-2.89.85-4.24,1.21-8.99,2.44-18.08,4.45-27.27,6-5.92,1-11.86,1.85-17.83,2.51-5.44.6-10.9,1.05-16.36,1.38-4.67.28-9.35.38-14.03.48-4.45.09-8.9,0-13.35-.16-5.62-.2-11.24-.61-16.83-1.26-6.88-.79-13.7-1.9-20.4-3.7-3.64-.98-7.21-2.17-10.58-3.89-1.74-.88-3.38-1.9-4.8-3.25-.22-.21-.44-.42-.65-.64-2.16-2.42-2.28-5.06-.37-7.67,1.14-1.56,2.63-2.74,4.23-3.79,3.9-2.57,8.19-4.33,12.57-5.9.61-.22,1.22-.41,1.84-.61.03,0,.07.02.23.07Z"/>
  <path class="cls-3" d="m59.66,373.65c1.92.28,3.61.52,5.3.77,4.02.61,8.06,1.09,12.1,1.55,4.31.49,8.62.88,12.94,1.28,2.16.2,4.32.35,6.49.49,6.95.43,13.9.79,20.86,1.02,9.7.32,19.4.45,29.11.3,5.4-.08,10.81-.21,16.2-.44,6.04-.25,12.08-.57,18.12-1.01,4.25-.31,8.5-.63,12.74-1.03,4.62-.43,9.23-.93,13.83-1.49,5.28-.64,10.56-1.35,15.82-2.17,6.61-1.04,13.2-2.21,19.74-3.62,8.82-1.89,17.55-4.08,26.07-7.06,5.36-1.87,10.6-4.03,15.51-6.91,2.07-1.21,4.04-2.57,5.8-4.23.63-.6,1.2-1.26,1.83-2.13.16,1.08-.15,1.89-.39,2.69-1,3.42-3.03,6.19-5.59,8.61-2.79,2.64-5.98,4.69-9.37,6.47-6.06,3.18-12.48,5.43-19.03,7.3-8.13,2.32-16.39,3.98-24.72,5.36-6.49,1.08-13.01,1.91-19.55,2.63-4.57.51-9.16.91-13.74,1.26-6.45.49-12.9.88-19.36,1.15-5.06.21-10.12.34-15.17.47-7.08.19-14.16.16-21.24.07-5.52-.07-11.03-.22-16.55-.44-5.51-.22-11.02-.54-16.52-.91-4.97-.34-9.93-.76-14.88-1.34-8.73-1.02-17.42-2.26-25.92-4.56-2.9-.78-5.77-1.69-8.5-2.96-.61-.28-1.22-.56-1.91-1.14Z"/>
  <path class="cls-3" d="m231.25,283.84c.71-1.29,1.67-2.09,2.89-2.74,7.92-4.18,15.53-8.86,22.52-14.49,5.3-4.27,10.14-8.98,13.95-14.67,2.41-3.6,4.32-7.44,5.15-11.73,1.8-9.2-1.14-16.67-8.53-22.32-4.79-3.66-10.29-5.34-16.34-5.03-2.6.13-5.1.83-7.6,1.48-1.1.29-2.18.63-3.37.97.03-.32.2-.5.36-.68,1.49-1.74,3.26-3.09,5.42-3.87,5.06-1.82,10.28-2.79,15.66-2.65,7.41.2,14.25,2.22,20.21,6.76,5.52,4.21,9.07,9.68,10.25,16.58.73,4.29.23,8.49-1.15,12.6-1.58,4.69-4.18,8.77-7.42,12.48-4.89,5.59-10.78,9.94-17.18,13.64-9.68,5.59-20.06,9.47-30.76,12.56-1.1.32-2.2.61-3.3.92-.22.06-.44.11-.79.19Z"/>
  <path class="cls-2" d="m295.31,443.65c0,1.37,0,2.73,0,4.1,0,.84-.11.91-.9.87-.42-.02-.5-.23-.5-.58,0-1.98,0-3.95,0-5.93,0-.44.15-.63.6-.59.19.02.38.03.57,0,.71-.13,1,.24,1.21.86.4,1.15.86,2.27,1.3,3.4.06.16.06.39.41.44.49-1.27.98-2.57,1.5-3.86.12-.29.1-.76.52-.8.52-.06,1.06-.04,1.59,0,.21.02.21.28.21.47,0,2.01,0,4.03,0,6.04,0,.5-.27.54-.66.54-.37,0-.68-.02-.67-.52.02-1.1.01-2.2,0-3.31,0-.37.09-.75-.17-1.19-.57,1.05-.84,2.14-1.27,3.16-.19.45-.36.92-.51,1.39-.11.34-.31.47-.67.48-.37,0-.54-.17-.66-.49-.46-1.25-.92-2.49-1.39-3.74-.1-.27-.2-.54-.31-.82-.07.02-.14.05-.2.07Z"/>
  <path class="cls-1" d="m289.15,445.58c0-.72-.02-1.44,0-2.16.02-.53-.15-.79-.71-.73-.26.03-.53-.01-.8,0-.49.04-.67-.16-.66-.66,0-.51.3-.52.67-.52,1.48,0,2.96.02,4.44,0,.46,0,.59.18.6.6,0,.45-.19.62-.61.58-.04,0-.08,0-.11,0q-1.38.07-1.38,1.41c0,1.29-.03,2.58.01,3.87.02.65-.34.62-.79.63-.47.02-.69-.12-.67-.63.03-.8,0-1.59,0-2.39Z"/>
  <path class="cls-4" d="m285.3,465.96c0-2.22-.24-4.41-.7-6.57-1.65-7.77-6.05-13.31-13.36-16.5-4.31-1.88-8.87-2.69-13.52-2.94-5.02-.27-10.04-.05-15.02.69-7.4,1.1-14.55,3.13-21.41,6.12-.79.34-.8.35-.58,1.26.74,3.11,1.48,6.21,2.23,9.32.22.91.23.91,1.09.61,5.42-1.92,10.96-3.39,16.66-4.19,4.8-.68,9.62-.94,14.43-.12,2.46.42,4.79,1.19,6.84,2.66,3.2,2.29,4.61,5.56,5.08,9.33.43,3.49.14,7,.23,10.49.02.59-.18.8-.78.78-1.6-.03-3.2,0-4.79-.01-6.63-.03-13.22.4-19.71,1.87-4.7,1.06-9.2,2.63-13.33,5.16-5.82,3.56-9.93,8.47-11.73,15.12-1.38,5.09-1.4,10.24-.2,15.37,1.84,7.86,6.72,12.95,14.35,15.43,2.98.97,6.06,1.38,9.19,1.54,6.11.31,11.96-.71,17.52-3.29,3.96-1.84,7.52-4.3,10.87-7.07.31-.26.56-.62,1.12-.75.42,2.87.81,5.65,1.25,8.43.16.99-.07.98,1.11.98,4.07,0,8.14,0,12.22,0,.96,0,.97-.01.97-1.02,0-20.9,0-41.8,0-62.7Zm-18.5,43.73c-3.95,3.29-8.21,6.02-13.17,7.52-3.41,1.03-6.87,1.27-10.35.43-4.54-1.1-7.44-3.94-8.7-8.43-.79-2.79-.82-5.63-.32-8.47.8-4.54,3.5-7.56,7.59-9.46,2.57-1.2,5.3-1.83,8.09-2.26,5.48-.84,11-.64,16.51-.66.79,0,.8.02.81.84,0,3.23,0,6.47,0,9.7,0,3.2,0,6.39,0,9.59,0,.47-.04.85-.46,1.2Z"/>
  <path class="cls-4" d="m120.52,465.1c0-.41.07-.84-.07-1.24.01-1.42-.23-2.81-.51-4.18-1.55-7.68-5.76-13.28-12.95-16.57-4.5-2.06-9.27-2.91-14.16-3.16-5.29-.27-10.56.02-15.81.85-7.09,1.12-13.92,3.16-20.51,5.97-.53.23-.73.45-.57,1.09.8,3.17,1.53,6.36,2.29,9.54.2.84.22.85,1.02.57,6.84-2.4,13.82-4.16,21.08-4.68,4.03-.29,8.06-.27,12.01.78,2.27.61,4.36,1.57,6.09,3.2,2.46,2.31,3.54,5.27,3.91,8.53.4,3.45.16,6.92.22,10.38.01.55-.2.72-.74.72-1.56-.02-3.12,0-4.68,0-5.94-.03-11.86.3-17.71,1.42-5.52,1.06-10.83,2.72-15.65,5.7-5.47,3.38-9.43,8-11.34,14.22-1.56,5.09-1.67,10.27-.6,15.46,1.68,8.17,6.56,13.53,14.46,16.13,3.02.99,6.14,1.41,9.3,1.56,6.03.3,11.81-.69,17.31-3.22,4.04-1.86,7.66-4.35,11.07-7.19.3-.25.55-.61,1.06-.65.19,1.25.35,2.45.54,3.65.31,1.84.45,3.7.87,5.51.4.18.83.09,1.24.09,3.8,0,7.6,0,11.41,0,1.58,0,1.42.19,1.42-1.38,0-21.03,0-42.07,0-63.1Zm-18.04,43.61c0,.22.03.46-.11.66-4.49,3.94-9.45,7.03-15.36,8.33-2.85.63-5.74.65-8.59-.09-4.68-1.2-7.55-4.22-8.68-8.87-.7-2.85-.68-5.72-.06-8.59.74-3.43,2.64-6.01,5.59-7.86,2.62-1.64,5.53-2.48,8.54-3.03,3.52-.65,7.09-.87,10.67-.88,2.62-.01,5.25.01,7.87.02.2.23.13.5.13.76,0,6.52,0,13.03,0,19.55Z"/>
</svg>